<!DOCTYPE svg PUBLIC "-//W3C//DTD SVG 20010904//EN" "http://www.w3.org/TR/2001/REC-SVG-20010904/DTD/svg10.dtd">
<svg version="1.0" xmlns="http://www.w3.org/2000/svg" width="1362px" height="1405px" viewBox="0 0 13620 14050" preserveAspectRatio="xMidYMid meet">
<g id="layer1" fill="#e0a913" stroke="none">
 <path d="M5765 13754 c-71 -8 -202 -26 -290 -40 -88 -14 -189 -29 -225 -35 -116 -17 -521 -120 -705 -179 -903 -291 -1702 -776 -2350 -1427 -135 -135 -243 -248 -281 -294 -22 -26 -75 -89 -118 -140 -325 -384 -653 -919 -859 -1402 -238 -558 -357 -999 -450 -1669 -20 -151 -22 -199 -22 -668 0 -554 0 -545 71 -980 57 -347 166 -755 294 -1095 70 -188 120 -301 237 -535 170 -343 333 -608 563 -915 119 -159 162 -211 316 -384 204 -229 604 -609 626 -595 10 6 18 -8 -113 190 -511 766 -832 1633 -944 2544 -60 491 -58 945 6 1450 136 1084 584 2122 1288 2980 103 126 281 323 286 318 2 -2 42 -178 90 -393 222 -997 269 -1131 642 -1800 283 -509 790 -1208 1143 -1579 81 -85 203 -194 425 -380 134 -113 220 -168 490 -318 44 -24 166 -94 271 -155 253 -147 540 -290 799 -398 50 -20 146 -63 215 -95 120 -55 208 -85 385 -130 44 -11 117 -30 163 -42 58 -15 86 -18 93 -11 8 8 -19 26 -93 61 -377 184 -761 464 -1194 870 -165 154 -286 281 -564 587 -415 458 -575 670 -882 1175 -361 595 -494 857 -615 1215 -159 470 -232 946 -233 1510 0 267 19 781 30 811 17 43 444 272 760 407 538 229 1047 363 1670 438 165 21 232 23 615 24 440 0 532 -5 820 -46 973 -137 1900 -516 2685 -1097 63 -47 148 -112 188 -145 95 -77 111 -65 41 29 -166 221 -323 400 -568 645 -180 180 -339 325 -448 409 -17 14 -69 54 -115 90 -225 176 -524 370 -805 521 -95 52 -352 179 -360 179 -3 0 -46 19 -97 41 -452 204 -1014 354 -1671 445 -170 23 -1021 29 -1210 8z"/>
 </g>
<g id="layer2" fill="#dedede" stroke="none">
 <path d="M6930 12694 c-402 -28 -871 -113 -1267 -230 -447 -131 -931 -341 -1310 -567 -133 -80 -119 -36 -133 -412 -29 -747 4 -1174 125 -1665 126 -507 273 -825 713 -1550 184 -302 254 -408 394 -595 236 -316 749 -885 1072 -1187 404 -379 710 -608 1096 -819 69 -38 122 -69 118 -69 -4 0 -42 11 -85 25 -43 13 -103 29 -133 36 -107 22 -227 62 -350 119 -69 32 -165 75 -215 95 -259 108 -546 251 -799 398 -105 61 -227 131 -271 155 -271 151 -355 205 -495 322 -356 298 -456 400 -715 722 -315 395 -624 847 -827 1211 -375 674 -425 815 -648 1827 -46 206 -87 380 -92 385 -19 19 -290 -286 -488 -550 -350 -465 -656 -1043 -845 -1596 -178 -524 -267 -964 -310 -1534 -62 -826 84 -1749 403 -2545 246 -614 636 -1257 1042 -1715 142 -161 477 -490 603 -594 137 -112 163 -133 240 -192 657 -502 1422 -865 2207 -1049 96 -22 189 -47 206 -55 17 -8 48 -17 70 -20 58 -7 871 -103 932 -109 28 -4 76 -8 105 -11 61 -7 626 -73 677 -80 59 -8 122 -14 190 -20 36 -3 83 -7 105 -10 22 -2 60 -7 85 -9 41 -5 60 -7 160 -21 19 -2 116 -14 215 -25 99 -11 376 -42 615 -70 239 -27 462 -52 495 -56 33 -3 74 -7 90 -10 131 -16 1754 -203 1870 -214 159 -16 195 -20 300 -36 111 -16 303 -35 333 -32 l37 3 12 95 c7 52 15 118 18 145 3 28 10 88 15 135 6 47 12 108 14 135 13 137 17 182 21 201 3 11 7 43 10 70 3 27 8 65 10 84 3 19 14 118 26 220 11 102 43 376 69 610 27 234 52 448 55 475 3 28 25 221 49 430 25 209 57 486 72 614 14 129 28 246 30 260 2 15 17 148 34 296 16 149 48 401 70 560 118 860 154 1113 175 1245 57 349 60 391 60 915 0 527 -4 587 -61 921 -14 82 -27 167 -30 189 -10 76 -106 461 -155 620 -56 180 -130 384 -191 525 -22 52 -55 130 -73 172 -51 121 -216 434 -317 601 -227 378 -512 746 -823 1066 -138 142 -428 409 -454 419 -9 3 -47 31 -86 62 -713 577 -1613 998 -2520 1179 -414 83 -616 103 -1095 106 -217 1 -420 1 -450 -1z"/>
 <path d="M1995 3931 c-8 -14 13 -53 26 -46 13 9 11 31 -5 44 -10 8 -16 9 -21 2z"/>
 </g>

</svg>